<svg width="126" height="21" viewBox="0 0 126 21" fill="none" xmlns="http://www.w3.org/2000/svg">
<path d="M48.2719 3.32512C49.6379 4.46115 50.3186 6.13701 50.3186 8.35742C50.3186 9.61549 50.1214 10.7093 49.7318 11.6434C49.3375 12.5776 48.7976 13.3052 48.1076 13.8216C47.4175 14.3426 46.6664 14.7229 45.8449 14.967C45.0281 15.2111 44.1362 15.3331 43.1786 15.3331C42.1505 15.3331 41.2398 15.3238 40.4512 15.3003C39.6578 15.2815 39.1274 15.2627 38.8598 15.2486L38.4326 15.2064V1.74315C39.2823 1.66334 40.869 1.62109 43.1786 1.62109C45.2112 1.62109 46.9058 2.1891 48.2719 3.32512ZM46.6523 11.8359C47.4081 11.0848 47.7884 9.92531 47.7884 8.35742C47.7884 6.93974 47.394 5.85535 46.6101 5.11365C45.8261 4.37195 44.6854 3.99641 43.1832 3.99641C42.0754 3.99641 41.3149 4.0011 40.9112 4.01519V12.9391C41.3149 12.9531 42.0754 12.9578 43.1832 12.9578C44.7371 12.9625 45.8919 12.587 46.6523 11.8359Z" fill="#0B1537"/>
<path d="M61.6881 6.97748C62.7349 8.07125 63.1527 9.47015 62.9368 11.1742H54.5621C54.7358 11.8361 55.0973 12.3525 55.6465 12.7139C56.1958 13.0801 56.8107 13.2631 57.5008 13.2631C58.0406 13.2631 58.557 13.1411 59.0405 12.897C59.5287 12.6529 59.9136 12.3431 60.1953 11.9628L62.2232 13.3617C61.721 14.0236 61.0356 14.54 60.1624 14.9155C59.2893 15.2864 58.4021 15.4742 57.4961 15.4742C56.8342 15.4742 56.1864 15.3709 55.5573 15.169C54.9283 14.9672 54.3415 14.6667 53.7923 14.2677C53.243 13.8687 52.8065 13.3336 52.4732 12.667C52.1399 11.9957 51.9756 11.2352 51.9756 10.3855C51.9756 9.54526 52.1399 8.79887 52.4732 8.13228C52.8065 7.47038 53.2384 6.93992 53.7829 6.54091C54.3227 6.14189 54.9095 5.84146 55.5479 5.6396C56.1864 5.43775 56.8342 5.33447 57.4961 5.33447C59.2471 5.33447 60.6413 5.88371 61.6881 6.97748ZM55.7451 8.0337C55.21 8.3576 54.8344 8.81295 54.6185 9.39035H60.3408C60.139 8.80826 59.7728 8.3576 59.2471 8.0337C58.7213 7.70979 58.1392 7.54549 57.5008 7.54549C56.867 7.54549 56.2803 7.70979 55.7451 8.0337Z" fill="#0B1537"/>
<path d="M74.7841 15.2111H72.3713V7.91143H68.8224V15.2111H66.4095V7.91143H64.0342V5.59714H66.4095V4.724C66.4095 3.7382 66.7428 2.94016 67.4141 2.33929C68.0854 1.73842 68.9397 1.43799 69.9819 1.43799C70.686 1.43799 71.315 1.60229 71.8784 1.9262C72.4417 2.2501 72.8642 2.69137 73.1458 3.24529L71.0756 4.52214C70.9113 4.01047 70.5499 3.75228 69.9819 3.75228C69.6298 3.75228 69.3481 3.86494 69.1416 4.08557C68.9303 4.30621 68.8271 4.63011 68.8271 5.04791V5.59714H74.7888V15.2111H74.7841Z" fill="#0B1537"/>
<path d="M87.8688 5.59735V15.2113H85.456V14.033C84.4983 14.9906 83.3013 15.4742 81.8648 15.4742C80.5645 15.4742 79.4144 15.0329 78.4051 14.1551C77.3958 13.2772 76.8936 12.0239 76.8936 10.4043C76.8936 8.79417 77.3958 7.54549 78.4051 6.66296C79.4144 5.77574 80.5645 5.33447 81.8648 5.33447C83.2825 5.33447 84.4795 5.81329 85.456 6.77562V5.59735H87.8688V5.59735ZM84.6016 12.4135C85.1555 11.9112 85.4325 11.2446 85.4325 10.4043C85.4325 9.56404 85.1555 8.89745 84.6016 8.39516C84.0477 7.89287 83.3154 7.64407 82.4094 7.64407C81.5034 7.64407 80.771 7.89287 80.2077 8.39516C79.6491 8.89745 79.3675 9.56404 79.3675 10.4043C79.3675 11.2446 79.6491 11.9112 80.2077 12.4135C80.771 12.9158 81.5034 13.1646 82.4094 13.1646C83.3154 13.1646 84.0477 12.9158 84.6016 12.4135Z" fill="#0B1537"/>
<path d="M99.9551 6.40947C100.767 7.1277 101.171 8.1933 101.171 9.61567V15.216H98.758V10.4466C98.758 8.57823 97.899 7.64876 96.1809 7.64876C95.3312 7.64876 94.5754 7.93042 93.9182 8.49843C93.261 9.06644 92.9324 9.91142 92.9324 11.0334V15.2113H90.5195V5.59735H92.9324V7.05728C93.9605 5.90718 95.2467 5.33447 96.7864 5.33447C98.0867 5.33447 99.143 5.69124 99.9551 6.40947Z" fill="#0B1537"/>
<path d="M106.72 15.1734C106.091 14.9716 105.505 14.6711 104.955 14.2721C104.406 13.8731 103.97 13.338 103.636 12.6714C103.303 12.0001 103.139 11.2396 103.139 10.3899C103.139 9.54965 103.303 8.80326 103.636 8.13667C103.97 7.47477 104.401 6.94432 104.946 6.5453C105.486 6.14629 106.077 5.84585 106.711 5.644C107.345 5.44214 107.997 5.33887 108.659 5.33887C109.509 5.33887 110.344 5.50786 111.152 5.84585C111.964 6.18384 112.626 6.67674 113.138 7.32456L111.33 9.04736C111.058 8.58732 110.682 8.23994 110.194 8.00054C109.706 7.76582 109.194 7.64377 108.654 7.64377C107.856 7.64377 107.152 7.87848 106.533 8.35261C105.918 8.82673 105.608 9.50741 105.608 10.3993C105.608 11.2912 105.918 11.9766 106.533 12.446C107.148 12.9202 107.856 13.1549 108.654 13.1549C109.194 13.1549 109.715 13.0328 110.218 12.7887C110.72 12.5446 111.096 12.1925 111.354 11.7325L113.382 13.1314C112.893 13.8872 112.217 14.4646 111.354 14.8636C110.49 15.2626 109.589 15.4598 108.654 15.4598C107.997 15.4739 107.349 15.3753 106.72 15.1734Z" fill="#0B1537"/>
<path d="M124.062 6.97748C125.109 8.07125 125.527 9.47015 125.311 11.1742H116.936C117.11 11.8361 117.471 12.3525 118.021 12.7139C118.57 13.0801 119.185 13.2631 119.875 13.2631C120.415 13.2631 120.931 13.1411 121.415 12.897C121.903 12.6529 122.288 12.3431 122.569 11.9628L124.597 13.3617C124.095 14.0236 123.41 14.54 122.536 14.9155C121.663 15.2864 120.776 15.4742 119.87 15.4742C119.208 15.4742 118.56 15.3709 117.931 15.169C117.302 14.9672 116.716 14.6667 116.166 14.2677C115.617 13.8687 115.18 13.3336 114.847 12.667C114.514 11.9957 114.35 11.2352 114.35 10.3855C114.35 9.54526 114.514 8.79887 114.847 8.13228C115.18 7.47038 115.612 6.93992 116.157 6.54091C116.697 6.14189 117.288 5.84146 117.922 5.6396C118.556 5.43775 119.208 5.33447 119.87 5.33447C121.621 5.33447 123.015 5.88371 124.062 6.97748ZM118.119 8.0337C117.584 8.3576 117.208 8.81295 116.993 9.39035H122.71C122.508 8.80826 122.142 8.3576 121.616 8.0337C121.091 7.70979 120.509 7.54549 119.87 7.54549C119.232 7.54549 118.654 7.70979 118.119 8.0337Z" fill="#0B1537"/>
<path d="M0 11.8124C0.384933 11.5823 0.737005 11.3711 1.09377 11.1599C3.10763 9.9722 5.11679 8.78454 7.13064 7.60158C8.72671 6.66741 10.4683 6.1792 12.2944 5.96327C13.6839 5.79897 15.0687 5.79427 16.4582 5.96796C18.4955 6.22145 20.4296 6.78477 22.143 7.96304C22.9974 8.54983 23.7156 9.26805 24.1522 10.2163C24.7953 11.6293 24.5606 12.9484 23.6874 14.2018C23.049 15.1218 22.1665 15.7227 21.2276 16.2766C19.0307 17.5676 16.8385 18.8585 14.6462 20.1635C14.4397 20.2856 14.2848 20.2903 14.0735 20.1682C10.9377 18.3093 7.79254 16.4597 4.65205 14.6055C3.14988 13.7183 1.65709 12.8169 0.159606 11.9203C0.122052 11.8969 0.0798031 11.8687 0 11.8124Z" fill="#00FFF0"/>
<path d="M0.0244141 6.23082C0.409347 6.0008 0.761419 5.78956 1.11819 5.57831C3.13204 4.39066 5.1412 3.203 7.15506 2.02003C8.75112 1.08587 10.4927 0.597661 12.3188 0.381723C13.7083 0.217423 15.0931 0.212728 16.4826 0.386417C18.52 0.63991 20.454 1.20323 22.1674 2.3815C23.0218 2.96828 23.74 3.68651 24.1766 4.63476C24.8197 6.04774 24.585 7.36684 23.7119 8.62022C23.0734 9.5403 22.1909 10.1412 21.252 10.6951C19.0551 11.986 16.8629 13.277 14.6706 14.582C14.4641 14.704 14.3092 14.7087 14.0979 14.5867C10.9621 12.7277 7.81695 10.8782 4.67647 9.02393C3.17429 8.13671 1.6815 7.2354 0.18402 6.33879C0.146466 6.31532 0.104217 6.28715 0.0244141 6.23082Z" fill="#00D1FF"/>
</svg>
