<svg width="30" height="23" viewBox="0 0 30 23" fill="none" xmlns="http://www.w3.org/2000/svg">
<g clip-path="url(#clip0_659_1765)">
<path d="M23.7279 4.41699C20.4137 4.41699 17.7275 7.25268 17.7275 10.7506C17.7275 14.2485 20.4137 17.0842 23.7279 17.0842C27.0425 17.0842 29.7282 14.2485 29.7282 10.7506C29.7282 7.25268 27.0425 4.41699 23.7279 4.41699ZM23.7279 14.4174C21.8863 14.4174 20.3945 12.7759 20.3945 10.7506C20.3945 8.72532 21.8863 7.08376 23.7279 7.08376C25.5695 7.08376 27.0618 8.72532 27.0618 10.7506C27.0618 12.7759 25.5695 14.4174 23.7279 14.4174Z" fill="#02055D"/>
<path d="M10.0607 10.0836V12.417H12.4578C11.48 13.6408 10.0237 14.4171 8.39392 14.4171C5.44863 14.4171 3.06038 11.8792 3.06038 8.75021C3.06038 5.61969 5.44863 3.08327 8.39392 3.08327C10.6163 3.08327 12.5216 4.52928 13.3216 6.5827H16.1203C15.2046 3.03139 12.0934 0.416504 8.39392 0.416504C3.97594 0.416504 0.393555 4.147 0.393555 8.75021C0.393555 13.3534 3.97594 17.0839 8.39392 17.0839C10.6089 17.0839 12.6119 16.1461 14.0608 14.6319V16.7506H16.3942V10.0836H10.0607Z" fill="#02055D"/>
<path d="M6.61914 19.7656H7.24287V22.2146H8.73482V22.751H6.61914V19.7656Z" fill="#02055D"/>
<path d="M11.452 22.4858C11.2267 22.7184 10.9008 22.834 10.4742 22.834C10.0474 22.834 9.72152 22.7184 9.49633 22.4858C9.19407 22.2013 9.04297 21.791 9.04297 21.2546C9.04297 20.7079 9.19407 20.2976 9.49633 20.0234C9.72152 19.7909 10.0474 19.6753 10.4742 19.6753C10.9008 19.6753 11.2267 19.7909 11.452 20.0234C11.7527 20.2976 11.9038 20.7079 11.9038 21.2546C11.9038 21.7895 11.7542 22.2013 11.452 22.4858ZM11.0623 22.0325C11.2075 21.8502 11.2801 21.5909 11.2801 21.2546C11.2801 20.9198 11.2075 20.6605 11.0623 20.4783C10.9171 20.2946 10.7215 20.2042 10.4742 20.2042C10.2267 20.2042 10.0297 20.2961 9.883 20.4783C9.73634 20.6605 9.66226 20.9198 9.66226 21.2561C9.66226 21.5924 9.73634 21.8517 9.883 22.0339C10.0297 22.2162 10.2267 22.308 10.4742 22.308C10.7215 22.305 10.9171 22.2147 11.0623 22.0325Z" fill="#02055D"/>
<path d="M12.6653 20.0769C12.9054 19.831 13.212 19.708 13.5839 19.708C14.0802 19.708 14.4447 19.8725 14.6743 20.2029C14.8018 20.3881 14.8699 20.5732 14.8788 20.7599H14.2551C14.215 20.6162 14.1647 20.5081 14.1025 20.4355C13.9914 20.3051 13.8269 20.2414 13.6076 20.2414C13.3854 20.2414 13.2105 20.3332 13.0817 20.5155C12.9528 20.6992 12.8891 20.957 12.8891 21.2918C12.8891 21.6266 12.9572 21.877 13.0921 22.0444C13.2268 22.2118 13.4002 22.2948 13.6076 22.2948C13.8209 22.2948 13.9854 22.2237 14.0965 22.08C14.1587 22.0029 14.2106 21.8874 14.2506 21.7333H14.8699C14.8166 22.0592 14.6802 22.3229 14.4595 22.5274C14.2402 22.7319 13.9587 22.8326 13.615 22.8326C13.1898 22.8326 12.8564 22.6949 12.6135 22.4193C12.3705 22.1422 12.249 21.7629 12.249 21.2814C12.2505 20.7614 12.3883 20.3599 12.6653 20.0769Z" fill="#02055D"/>
<path d="M15.3857 19.7656H15.9993V20.9953L17.1531 19.7656H17.9591L16.7337 20.9938L18.0212 22.751H17.2199L16.2999 21.4472L15.9993 21.7524V22.751H15.3857V19.7656Z" fill="#02055D"/>
<path d="M20.5798 20.2946H19.0003V20.9287H20.4509V21.4472H19.0003V22.2146H20.6536V22.751H18.3916V19.7656H20.5814V20.2946H20.5798Z" fill="#02055D"/>
<path d="M23.0527 19.8427C23.1623 19.8901 23.256 19.9597 23.333 20.0516C23.3966 20.1272 23.4453 20.2116 23.4827 20.3035C23.5196 20.3953 23.5373 20.5005 23.5373 20.6175C23.5373 20.7598 23.502 20.899 23.4309 21.0353C23.3597 21.1716 23.241 21.2694 23.0768 21.3257C23.2142 21.3805 23.3121 21.4591 23.3699 21.5613C23.4276 21.6635 23.456 21.8191 23.456 22.028V22.228C23.456 22.3643 23.4619 22.4561 23.472 22.505C23.4886 22.5821 23.5271 22.6384 23.5876 22.6754V22.751H22.8986C22.8794 22.6843 22.866 22.6309 22.8585 22.5909C22.8425 22.5065 22.8334 22.4221 22.8323 22.3332L22.8275 22.0561C22.8248 21.865 22.7922 21.7391 22.7286 21.6754C22.6649 21.6117 22.5462 21.5805 22.3729 21.5805H21.7642V22.751H21.1533V19.7656H22.5815C22.7847 19.7686 22.942 19.7953 23.0527 19.8427ZM21.7626 20.2842V21.0857H22.4333C22.567 21.0857 22.6676 21.0694 22.7344 21.0368C22.8526 20.9805 22.9104 20.8679 22.9104 20.7005C22.9104 20.5198 22.8526 20.3983 22.7387 20.336C22.6751 20.3005 22.5788 20.2827 22.4499 20.2827H21.7626V20.2842Z" fill="#02055D"/>
</g>
<defs>
<clipPath id="clip0_659_1765">
<rect width="29.9535" height="23" fill="white"/>
</clipPath>
</defs>
</svg>
