<svg width="82" height="23" viewBox="0 0 82 23" fill="none" xmlns="http://www.w3.org/2000/svg">
<g clip-path="url(#clip0_659_1784)">
<mask id="mask0_659_1784" style="mask-type:luminance" maskUnits="userSpaceOnUse" x="0" y="0" width="82" height="24">
<path d="M81.2031 0H0.0634766V23.0014H81.2031V0Z" fill="white"/>
</mask>
<g mask="url(#mask0_659_1784)">
<path d="M8.85046 3.80713V10.2948H2.89222V3.80713H0.0634766V19.2938H2.89222V13.0168H8.85046V19.2938H11.6792V3.80713H8.85046Z" fill="#33475B"/>
<path d="M20.7318 14.288C20.7318 14.9086 20.4852 15.5039 20.0463 15.9428C19.6075 16.3816 19.0122 16.6282 18.3916 16.6282C17.7709 16.6282 17.1757 16.3816 16.7368 15.9428C16.2979 15.5039 16.0514 14.9086 16.0514 14.288V7.65479H13.3682V14.288C13.3682 15.619 13.8969 16.8955 14.8381 17.8366C15.7792 18.7778 17.0557 19.3065 18.3867 19.3065C19.7177 19.3065 20.9942 18.7778 21.9354 17.8366C22.8765 16.8955 23.4053 15.619 23.4053 14.288V7.65479H20.7318V14.288Z" fill="#33475B"/>
<path d="M40.6125 8.33783C40.6125 6.9782 41.512 6.54717 42.4974 6.54717C43.2915 6.54717 44.3407 7.15145 45.0268 7.88462L46.7842 5.814C45.9068 4.62762 44.1273 3.80713 42.6706 3.80713C39.7601 3.80713 37.6548 5.51186 37.6548 8.33783C37.6548 13.5809 44.0635 11.9178 44.0635 14.8518C44.0635 15.7569 43.1848 16.5566 42.1786 16.5566C40.5917 16.5566 40.0775 15.7804 39.3485 14.9599L37.3984 16.9876C38.6458 18.5191 40.1842 19.2966 42.0275 19.2966C44.7925 19.2966 47.017 17.5711 47.017 14.874C47.017 9.05299 40.6083 10.8617 40.6083 8.33783" fill="#33475B"/>
<path d="M80.2586 16.8201C78.673 16.8201 78.2226 16.134 78.2226 15.0835V10.4336H80.6868V8.07746H78.2226V4.96875L75.502 6.18978V15.6614C75.502 18.0841 77.1734 19.3051 79.4658 19.3051C79.8253 19.3117 80.1846 19.2829 80.5385 19.2192L81.2024 16.7757C80.903 16.7965 80.5593 16.8173 80.2586 16.8173" fill="#33475B"/>
<path d="M30.9459 7.73208C29.6168 7.73208 28.6896 8.11738 27.7928 8.99746V3.8999H25.1055V13.348C25.1055 16.885 27.6626 19.3076 30.5357 19.3076C33.7234 19.3076 36.5272 16.842 36.5272 13.5212C36.5272 10.2421 33.9465 7.73347 30.9459 7.73347M30.9293 16.6036C30.3262 16.6036 29.7367 16.4248 29.2353 16.0897C28.7339 15.7547 28.343 15.2785 28.1123 14.7213C27.8815 14.1642 27.8211 13.5511 27.9387 12.9596C28.0564 12.3682 28.3468 11.8249 28.7732 11.3985C29.1997 10.972 29.743 10.6816 30.3344 10.564C30.9259 10.4463 31.539 10.5067 32.0961 10.7375C32.6533 10.9683 33.1295 11.3591 33.4645 11.8605C33.7996 12.3619 33.9784 12.9514 33.9784 13.5545C33.9784 14.3632 33.6571 15.1387 33.0853 15.7105C32.5135 16.2824 31.7379 16.6036 30.9293 16.6036Z" fill="#33475B"/>
<path d="M60.1248 13.3801C60.1248 10.0538 57.3266 7.59375 54.1333 7.59375C51.2602 7.59375 48.7031 10.0164 48.7031 13.5534V23.007H51.3905V17.9025C52.2858 18.7812 53.2144 19.1679 54.5422 19.1679C57.5428 19.1679 60.1234 16.6607 60.1234 13.3801M57.5802 13.3469C57.5802 13.9499 57.4014 14.5394 57.0663 15.0409C56.7313 15.5423 56.2551 15.9331 55.6979 16.1639C55.1408 16.3947 54.5277 16.455 53.9362 16.3374C53.3448 16.2197 52.8015 15.9293 52.375 15.5029C51.9486 15.0765 51.6582 14.5332 51.5406 13.9417C51.4229 13.3503 51.4833 12.7372 51.7141 12.18C51.9449 11.6229 52.3357 11.1467 52.8371 10.8116C53.3385 10.4766 53.928 10.2978 54.5311 10.2978C55.3398 10.2978 56.1153 10.619 56.6871 11.1908C57.2589 11.7626 57.5802 12.5382 57.5802 13.3469Z" fill="#33475B"/>
</g>
<mask id="mask1_659_1784" style="mask-type:luminance" maskUnits="userSpaceOnUse" x="52" y="0" width="22" height="23">
<path d="M73.822 0H52.1816V22.6771H73.822V0Z" fill="white"/>
</mask>
<g mask="url(#mask1_659_1784)">
<path d="M68.807 7.46331V4.76346C69.1638 4.59675 69.4659 4.33213 69.6782 4.00039C69.8904 3.66866 70.0041 3.28346 70.0059 2.88965V2.82728C70.0059 2.27591 69.7869 1.74712 69.397 1.35725C69.0071 0.967369 68.4783 0.748339 67.927 0.748339H67.8646C67.3132 0.748339 66.7844 0.967369 66.3946 1.35725C66.0047 1.74712 65.7857 2.27591 65.7857 2.82728V2.88965C65.7875 3.28346 65.9011 3.66866 66.1134 4.00039C66.3256 4.33213 66.6277 4.59675 66.9845 4.76346V7.46331C65.959 7.6202 64.9932 8.04525 64.1849 8.69543L56.7811 2.92845C56.8335 2.73828 56.8614 2.5422 56.8642 2.34496C56.865 1.88165 56.7284 1.4285 56.4717 1.04283C56.2149 0.657155 55.8496 0.356292 55.4218 0.178292C54.9941 0.00029261 54.5231 -0.0468473 54.0686 0.0428353C53.614 0.132518 53.1963 0.354994 52.8682 0.682123C52.5401 1.00925 52.3164 1.42634 52.2253 1.88062C52.1343 2.33491 52.1801 2.80599 52.3568 3.23427C52.5335 3.66256 52.8333 4.02881 53.2182 4.2867C53.6031 4.54459 54.0559 4.68253 54.5192 4.68308C54.9243 4.68127 55.3219 4.57327 55.6723 4.36985L62.9638 10.0426C62.3087 11.0321 61.9668 12.1961 61.9829 13.3828C61.999 14.5695 62.3722 15.7238 63.0539 16.6952L60.8364 18.9127C60.6571 18.8555 60.4702 18.8251 60.282 18.8226C59.9016 18.8229 59.5299 18.9359 59.2138 19.1474C58.8976 19.3589 58.6513 19.6594 58.5058 20.0108C58.3604 20.3623 58.3224 20.749 58.3967 21.122C58.471 21.495 58.6542 21.8377 58.9231 22.1066C59.1921 22.3756 59.5347 22.5588 59.9078 22.633C60.2808 22.7073 60.6675 22.6693 61.0189 22.5239C61.3704 22.3785 61.6708 22.1321 61.8823 21.816C62.0938 21.4998 62.2068 21.1281 62.2071 20.7477C62.2047 20.5595 62.1744 20.3727 62.117 20.1934L64.311 17.9994C65.0264 18.5499 65.8583 18.9294 66.743 19.1088C67.6277 19.2882 68.5418 19.2627 69.4151 19.0343C70.2884 18.8059 71.0979 18.3806 71.7815 17.7911C72.4652 17.2016 73.0048 16.4634 73.3591 15.6331C73.7134 14.8029 73.873 13.9025 73.8256 13.0011C73.7782 12.0996 73.5252 11.2209 73.0858 10.4324C72.6464 9.64378 72.0324 8.96624 71.2908 8.45161C70.5491 7.93698 69.6995 7.59891 68.807 7.46331ZM67.8979 16.3418C67.2977 16.3412 66.7112 16.1628 66.2125 15.829C65.7137 15.4952 65.3251 15.021 65.0958 14.4665C64.8664 13.9119 64.8066 13.3017 64.9239 12.7132C65.0412 12.1246 65.3304 11.584 65.7549 11.1598C66.1793 10.7355 66.72 10.4466 67.3086 10.3296C67.8973 10.2125 68.5074 10.2726 69.0618 10.5022C69.6163 10.7318 70.0903 11.1206 70.4239 11.6195C70.7574 12.1184 70.9356 12.705 70.9359 13.3051C70.9359 14.1101 70.6161 14.8822 70.0469 15.4514C69.4777 16.0206 68.7056 16.3404 67.9006 16.3404" fill="#FF7A59"/>
</g>
</g>
<defs>
<clipPath id="clip0_659_1784">
<rect width="81.2667" height="23" fill="white"/>
</clipPath>
</defs>
</svg>
