<svg width="75" height="23" viewBox="0 0 75 23" fill="none" xmlns="http://www.w3.org/2000/svg">
<g clip-path="url(#clip0_659_1740)">
<mask id="mask0_659_1740" style="mask-type:luminance" maskUnits="userSpaceOnUse" x="0" y="0" width="75" height="23">
<path d="M74.1235 0.0351562H0.580078V22.2077H74.1235V0.0351562Z" fill="white"/>
</mask>
<g mask="url(#mask0_659_1740)">
<path d="M1.53134 22.2081V20.0166C3.62607 20.0166 5.97872 19.4043 8.10573 18.3408C7.23559 16.9067 6.78438 15.1341 6.83276 13.136C6.88106 10.1873 8.62142 7.52846 11.1191 6.52935C12.7466 5.88486 14.3257 6.07822 15.4537 7.04505C16.646 8.07635 17.0972 9.80053 16.6621 11.6536C15.9693 14.538 14.0195 16.9873 11.538 18.8081C12.7304 19.5816 14.2774 19.8072 15.9371 19.4687C18.3541 18.9692 19.7399 17.3417 20.4972 16.0849C21.8831 13.7484 22.2537 10.574 21.464 7.97967C20.8196 5.86876 19.4337 4.22508 17.4518 3.20996C15.1152 2.01749 12.1342 1.88861 9.3143 2.85543C5.20526 4.27346 1.54744 8.88201 3.15884 15.682L1.03175 16.1815C0.193892 12.6043 0.564521 9.20425 2.11143 6.33599C3.52938 3.70947 5.83366 1.74363 8.58914 0.792905C11.973 -0.36728 15.5664 -0.190097 18.4347 1.26014C20.9162 2.51709 22.7371 4.67629 23.5428 7.33509C24.5257 10.5256 24.0745 14.3124 22.3826 17.1967C20.9968 19.5654 18.9181 21.0801 16.3882 21.6119C13.8423 22.1436 11.4574 21.628 9.68493 20.1617C9.63654 20.1294 9.60435 20.0972 9.55596 20.0488C6.99393 21.4347 4.14176 22.2081 1.53134 22.2081ZM12.9721 8.35021C12.6499 8.35021 12.2953 8.43079 11.9247 8.57586C9.95879 9.36542 9.04035 11.4602 9.00815 13.2005C8.97587 14.7796 9.31429 16.1654 9.97497 17.2451C12.1987 15.682 13.9389 13.5872 14.519 11.1541C14.7608 10.1067 14.5835 9.20425 14.0195 8.70474C13.7456 8.46308 13.3749 8.35021 12.9721 8.35021Z" fill="#02055D"/>
<path d="M28.7637 6.70665C28.7637 4.96637 29.9883 3.64502 31.8092 3.64502C33.7106 3.64502 34.8063 4.96637 34.8063 6.62607C34.8063 6.80333 34.8063 6.9806 34.7741 7.17396H30.2623C30.359 7.91513 30.8908 8.49523 31.9543 8.49523C32.6954 8.49523 33.1306 8.15688 33.3723 7.72177L34.7419 8.12468C34.4035 8.88196 33.469 9.78438 31.9382 9.78438C30.0689 9.78438 28.7637 8.55971 28.7637 6.70665ZM33.34 6.22324C33.2756 5.51418 32.7116 4.93409 31.8092 4.93409C30.923 4.93409 30.3429 5.56256 30.2623 6.22324H33.34Z" fill="#02055D"/>
<path d="M36.5947 1.22803H38.1096V9.62327H36.5947V1.22803Z" fill="#02055D"/>
<path d="M39.8486 6.70665C39.8486 4.96637 41.0734 3.64502 42.8945 3.64502C44.7961 3.64502 45.8919 4.96637 45.8919 6.62607C45.8919 6.80333 45.8919 6.9806 45.859 7.17396H41.3477C41.4438 7.91513 41.9761 8.49523 43.0399 8.49523C43.7808 8.49523 44.2162 8.15688 44.4577 7.72177L45.827 8.12468C45.4886 8.88196 44.5546 9.78438 43.0235 9.78438C41.1539 9.78438 39.8486 8.55971 39.8486 6.70665ZM44.4092 6.22324C44.3443 5.51418 43.7808 4.93409 42.8781 4.93409C41.9917 4.93409 41.4118 5.56256 41.3313 6.22324H44.4092Z" fill="#02055D"/>
<path d="M53.2247 3.80615L50.8236 9.62326H49.1159L46.7148 3.80615H48.375L49.9702 7.94747L51.5654 3.80615H53.2247Z" fill="#02055D"/>
<path d="M54.0303 6.70665C54.0303 4.93409 55.2871 3.64502 56.8987 3.64502C57.7201 3.64502 58.3649 3.98337 58.7683 4.49906V3.79H60.2986V9.60711H58.7683V8.89814C58.3485 9.42985 57.7045 9.76828 56.8987 9.76828C55.2871 9.78438 54.0303 8.47913 54.0303 6.70665ZM58.8159 6.70665C58.8159 5.70755 58.075 4.99857 57.1566 4.99857C56.2054 4.99857 55.5294 5.70755 55.5294 6.70665C55.5294 7.72177 56.2054 8.43083 57.1566 8.43083C58.075 8.43083 58.8159 7.70567 58.8159 6.70665Z" fill="#02055D"/>
<path d="M66.0675 9.43039C65.6001 9.60766 65.1976 9.70434 64.7137 9.70434C63.3765 9.70434 62.7637 8.8825 62.7637 7.62563V5.1441H61.7812V3.80665H62.7637V1.92139H64.2948V3.80665H66.0026V5.1441H64.2948V7.64173C64.2948 8.10905 64.5207 8.38299 65.0037 8.38299C65.2616 8.38299 65.4711 8.33469 65.697 8.22183L66.0675 9.43039Z" fill="#02055D"/>
<path d="M67.2109 6.70665C67.2109 4.96637 68.4357 3.64502 70.256 3.64502C72.1576 3.64502 73.2534 4.96637 73.2534 6.62607C73.2534 6.80333 73.2534 6.9806 73.2213 7.17396H68.7092C68.8062 7.91513 69.3376 8.49523 70.4014 8.49523C71.1423 8.49523 71.5777 8.15688 71.8192 7.72177L73.1893 8.12468C72.8509 8.88196 71.9161 9.78438 70.3849 9.78438C68.5162 9.78438 67.2109 8.55971 67.2109 6.70665ZM71.7707 6.22324C71.7066 5.51418 71.1423 4.93409 70.2404 4.93409C69.354 4.93409 68.7741 5.56256 68.6928 6.22324H71.7707Z" fill="#02055D"/>
<path d="M35.3854 17.6637C35.3854 19.4201 34.1286 20.7254 32.5172 20.7254C31.6954 20.7254 31.0508 20.3869 30.6319 19.8552V20.5642H29.1172V12.1689H30.6319V15.44C31.0508 14.9082 31.6954 14.586 32.5172 14.586C34.1286 14.586 35.3854 15.8912 35.3854 17.6637ZM33.903 17.6476C33.903 16.6485 33.2262 15.9396 32.2755 15.9396C31.357 15.9396 30.6158 16.6485 30.6158 17.6476C30.6158 18.6627 31.357 19.3718 32.2755 19.3718C33.2101 19.3718 33.903 18.6627 33.903 17.6476Z" fill="#02055D"/>
<path d="M40.5747 14.667V16.085C39.3343 15.8916 38.6575 16.4718 38.6575 18.0348V20.5646H37.1426V14.7476H38.6575V15.6016C38.9959 14.941 39.6727 14.5381 40.5747 14.667Z" fill="#02055D"/>
<path d="M41.7344 17.6642C41.7344 15.8916 42.9912 14.6025 44.602 14.6025C45.4242 14.6025 46.0682 14.941 46.4716 15.4566V14.7476H48.0019V20.5646H46.4716V19.8557C46.0526 20.3874 45.4078 20.7258 44.602 20.7258C42.9912 20.7258 41.7344 19.4205 41.7344 17.6642ZM46.52 17.6481C46.52 16.649 45.7783 15.94 44.8599 15.94C43.9095 15.94 43.2327 16.649 43.2327 17.6481C43.2327 18.6632 43.9095 19.3722 44.8599 19.3722C45.7947 19.3722 46.52 18.6632 46.52 17.6481Z" fill="#02055D"/>
<path d="M55.7706 17.1642V20.5641H54.2559V17.4542C54.2559 16.568 53.8526 16.004 53.0147 16.004C52.1612 16.004 51.6133 16.6646 51.6133 17.6959V20.5641H50.0986V14.7471H51.6133V15.4883C52.0158 14.9727 52.6442 14.5859 53.4821 14.5859C54.9968 14.5859 55.7706 15.6172 55.7706 17.1642Z" fill="#02055D"/>
<path d="M63.7302 12.1689V20.5642H62.1991V19.8552C61.7802 20.3869 61.1353 20.7254 60.3295 20.7254C58.7187 20.7254 57.4619 19.4201 57.4619 17.6637C57.4619 15.8912 58.7187 14.6021 60.3295 14.6021C61.1518 14.6021 61.7958 14.9405 62.1991 15.4561V12.1689H63.7302ZM62.2476 17.6476C62.2476 16.6485 61.5058 15.9396 60.5874 15.9396C59.6371 15.9396 58.9602 16.6485 58.9602 17.6476C58.9602 18.6627 59.6371 19.3718 60.5874 19.3718C61.5222 19.3718 62.2476 18.6627 62.2476 17.6476Z" fill="#02055D"/>
<path d="M65.3262 18.9371L66.6955 18.5343C66.8885 19.0822 67.4364 19.5011 68.2102 19.5011C68.7901 19.5011 69.177 19.2272 69.177 18.9049C69.177 18.6149 68.9511 18.4537 68.5322 18.3248L67.0503 17.8897C66.2281 17.6481 65.6161 17.1647 65.6161 16.3428C65.6161 15.3599 66.6791 14.6025 67.9523 14.6025C69.2091 14.6025 70.1603 15.1987 70.5307 16.0689L69.1935 16.4556C68.984 16.085 68.5651 15.7788 67.9523 15.7788C67.4849 15.7788 67.1309 16.0367 67.1309 16.3106C67.1309 16.5362 67.2919 16.6812 67.6139 16.7779L69.0645 17.1969C69.9344 17.4547 70.6917 17.8091 70.6917 18.8566C70.6917 19.9523 69.66 20.758 68.1782 20.758C66.7275 20.7258 65.6161 19.8718 65.3262 18.9371Z" fill="#02055D"/>
<path d="M72.2549 19.7104C72.2549 19.2109 72.6738 18.8081 73.1897 18.8081C73.7047 18.8081 74.1236 19.2109 74.1236 19.7104C74.1236 20.2422 73.7047 20.6451 73.1897 20.6451C72.6738 20.6612 72.2549 20.2422 72.2549 19.7104Z" fill="#02055D"/>
</g>
</g>
<defs>
<clipPath id="clip0_659_1740">
<rect width="74.75" height="23" fill="white"/>
</clipPath>
</defs>
</svg>
